<svg width="64" height="70" viewBox="0 0 64 70" fill="none" xmlns="http://www.w3.org/2000/svg">
<path d="M28.9194 0.888584C30.6476 -0.1006 32.8985 -0.105068 34.6252 0.888584C43.3119 5.79702 52.0013 10.6978 60.6865 15.6092C62.3201 16.5294 63.4128 18.3474 63.3962 20.2297V49.7607C63.4083 51.721 62.2077 53.5824 60.4842 54.4818C51.8261 59.3632 43.1724 64.2505 34.5157 69.1319C32.7518 70.1404 30.4557 70.0627 28.7469 68.9715C26.1512 67.4668 23.551 65.9695 20.9551 64.4662C20.4246 64.15 19.8266 63.8983 19.4521 63.3839C19.7832 62.9376 20.3752 62.882 20.8563 62.6872C21.9398 62.3426 22.9349 61.7896 23.9303 61.2529C24.182 61.0806 24.4893 61.1467 24.7306 61.3008C26.9503 62.5735 29.1503 63.8831 31.3774 65.1436C31.8525 65.4179 32.3335 65.0538 32.7397 64.8274C41.236 60.0254 49.7427 55.2416 58.2375 50.4382C58.5523 50.2867 58.7263 49.9526 58.7007 49.6078C58.7067 39.8662 58.7022 30.1228 58.7037 20.3811C58.7397 19.9899 58.5133 19.6302 58.1596 19.4701C49.5315 14.6111 40.9078 9.74458 32.2812 4.88429C32.1317 4.78154 31.9547 4.72641 31.7733 4.72614C31.5919 4.72588 31.4147 4.78049 31.2649 4.8828C22.6383 9.74458 14.0161 14.6155 5.38951 19.4743C5.03702 19.6347 4.80046 19.9884 4.84241 20.3811C4.8439 30.1228 4.84241 39.8662 4.84241 49.6093C4.82746 49.7776 4.86441 49.9463 4.94829 50.0929C5.03217 50.2395 5.15895 50.3569 5.31156 50.4292C7.61362 51.7346 9.91866 53.0309 12.2222 54.3318C13.5199 55.0304 15.1133 55.4454 16.5431 54.9102C17.8048 54.4577 18.6893 53.1701 18.6652 51.8305C18.6771 42.1456 18.6592 32.4593 18.6741 22.776C18.6426 22.3461 19.0504 21.9909 19.4684 22.0313C20.5745 22.0239 21.6821 22.0164 22.7882 22.0343C23.2499 22.0239 23.5677 22.4868 23.5106 22.92C23.5061 32.6661 23.5225 42.4125 23.5031 52.1586C23.5061 54.7561 22.439 57.5824 20.0364 58.8533C17.0765 60.3866 13.4182 60.0614 10.494 58.5912C7.96263 57.3277 5.54688 55.8366 3.06039 54.483C1.33249 53.5887 0.13777 51.7198 0.149933 49.761V20.2297C0.131812 18.3084 1.26795 16.4574 2.95242 15.5506C11.6091 10.6653 20.2643 5.77617 28.9194 0.888584Z" fill="#8CC84B"/>
<path d="M36.4715 21.3449C40.247 21.1019 44.2889 21.2009 47.6864 23.0609C50.3168 24.4862 51.7752 27.4776 51.8216 30.4C51.7481 30.7942 51.3361 31.0116 50.9598 30.9846C49.8643 30.9831 48.7687 30.9995 47.6732 30.9771C47.2085 30.995 46.9385 30.5665 46.8801 30.1557C46.5654 28.7575 45.8028 27.3726 44.4867 26.6982C42.4664 25.6867 40.1239 25.7375 37.9209 25.7586C36.3126 25.844 34.5832 25.9833 33.2207 26.929C32.1747 27.6454 31.8569 29.0916 32.2303 30.2563C32.5823 31.0925 33.5476 31.3624 34.3375 31.6111C38.8875 32.8011 43.709 32.6827 48.1722 34.2487C50.02 34.8872 51.8276 36.1283 52.46 38.063C53.2874 40.656 52.9247 43.7553 51.0799 45.837C49.5838 47.55 47.4049 48.4823 45.2317 48.9887C42.3406 49.6334 39.3402 49.6497 36.4042 49.3635C33.6434 49.0488 30.7705 48.3235 28.6392 46.4424C26.8167 44.86 25.9266 42.3943 26.0149 40.0146C26.036 39.6127 26.4362 39.3324 26.8212 39.3654C27.9243 39.3565 29.0274 39.3535 30.1305 39.3669C30.5711 39.3354 30.8978 39.7162 30.9204 40.1315C31.1239 41.4637 31.6246 42.862 32.7863 43.6518C35.0283 45.0982 37.8415 44.9992 40.4086 45.0397C42.5354 44.9453 44.9229 44.9168 46.6585 43.5111C47.5742 42.7093 47.8455 41.3679 47.598 40.2139C47.3299 39.2396 46.3107 38.7856 45.4355 38.4887C40.9438 37.0679 36.0684 37.5834 31.6201 35.9767C29.8143 35.3385 28.068 34.1318 27.3742 32.2766C26.4061 29.6508 26.8497 26.403 28.8879 24.3917C30.8752 22.3909 33.744 21.6204 36.4715 21.3447V21.3449Z" fill="#8CC84B"/>
</svg>
