<svg width="223" height="181" viewBox="0 0 223 181" fill="none" xmlns="http://www.w3.org/2000/svg">
<path fill-rule="evenodd" clip-rule="evenodd" d="M59.4799 17.7745C50.2442 7.70052 34.5621 0 21.4456 0C6.39825 0 7.69193 10.1346 9.25261 22.3609C9.76553 26.3791 10.3073 30.6232 10.3073 34.8077C10.3073 42.1905 12.0682 47.6374 15.7148 51.4319C4.75994 67.076 0 84.7164 0 100.246C0 139.463 21.9998 181 105.815 181C189.631 181 222.769 161.508 222.769 100.246C222.769 84.9985 219.023 67.7161 209.516 52.2863C213.763 48.4718 215.808 42.7639 215.808 34.8077C215.808 30.6232 216.349 26.3791 216.862 22.3609C218.423 10.1346 219.717 0 204.669 0C191.719 0 176.268 7.50632 166.99 17.3922C152.789 11.7232 135.367 8.35382 114.169 8.35382C92.4988 8.35382 74.4022 11.8751 59.4799 17.7745ZM189.354 108.6C189.354 143.203 174.002 162.9 115.562 162.9C57.1213 162.9 36.2 150.164 36.2 115.562C36.2 80.9588 47.3752 72.4 105.815 72.4C164.256 72.4 189.354 73.9972 189.354 108.6Z" fill="url(#paint0_linear_1_23)"/>
<ellipse cx="151.762" cy="116.954" rx="9.74615" ry="16.7077" fill="url(#paint1_linear_1_23)"/>
<ellipse cx="76.5769" cy="116.954" rx="9.74615" ry="16.7077" fill="url(#paint2_linear_1_23)"/>
<defs>
<linearGradient id="paint0_linear_1_23" x1="111.385" y1="8.35382" x2="111.385" y2="181" gradientUnits="userSpaceOnUse">
<stop stop-color="#00FFFF"/>
<stop offset="1" stop-color="#DB00FF"/>
</linearGradient>
<linearGradient id="paint1_linear_1_23" x1="151.762" y1="100.246" x2="151.762" y2="133.662" gradientUnits="userSpaceOnUse">
<stop stop-color="#00FFFF"/>
<stop offset="1" stop-color="#DB00FF"/>
</linearGradient>
<linearGradient id="paint2_linear_1_23" x1="76.5769" y1="100.246" x2="76.5769" y2="133.662" gradientUnits="userSpaceOnUse">
<stop stop-color="#00FFFF"/>
<stop offset="1" stop-color="#DB00FF"/>
</linearGradient>
</defs>
</svg>
