<svg width="73" height="60" viewBox="0 0 73 60" fill="none" xmlns="http://www.w3.org/2000/svg">
<path d="M60.0205 19.1706C59.2437 18.9279 58.4602 18.703 57.6709 18.4962C57.8035 18.0029 57.9255 17.5154 58.0339 17.0366C59.8127 9.17318 58.6498 2.83827 54.6779 0.75251C50.8696 -1.24703 44.6415 0.837945 38.3515 5.82304C37.7316 6.31522 37.1255 6.82159 36.5336 7.34165C36.1375 6.99583 35.7343 6.65671 35.3243 6.32448C28.7321 0.994273 22.1244 -1.25223 18.1568 0.839503C14.3519 2.84528 13.2253 8.80054 14.8267 16.2529C14.986 16.9909 15.1659 17.7252 15.3662 18.455C14.4309 18.697 13.5284 18.9546 12.6646 19.2288C4.93577 21.6828 0 25.5284 0 29.5174C0 33.6372 5.29877 37.7695 13.3487 40.2752C14.0014 40.4775 14.6594 40.6649 15.3223 40.8374C15.107 41.6233 14.9159 42.4146 14.7491 43.2103C13.2224 50.5333 14.4146 56.3479 18.2092 58.3409C22.1284 60.3991 28.7064 58.2838 35.1113 53.1849C35.6307 52.7704 36.1386 52.3441 36.6346 51.9065C37.2755 52.4697 37.9335 53.0164 38.6079 53.5462C44.8123 58.4079 50.9397 60.3711 54.7306 58.3726C58.6461 56.3084 59.9187 50.062 58.2665 42.4625C58.1364 41.8671 57.9904 41.2747 57.8288 40.6857C58.2908 40.5611 58.7442 40.4328 59.1862 40.2993C67.5549 37.7744 73 33.6923 73 29.5174C73 25.5139 67.9048 21.6423 60.0205 19.1706ZM58.2055 37.6038C57.8063 37.7241 57.3968 37.8401 56.9794 37.9531C56.0554 35.2896 54.8087 32.4575 53.2829 29.5311C54.7389 26.6746 55.9377 23.8787 56.8356 21.2325C57.5825 21.4293 58.307 21.6368 59.0057 21.8557C65.761 23.9737 69.8815 27.1047 69.8815 29.5174C69.8815 32.0872 65.4314 35.4233 58.2055 37.6038ZM55.2074 43.014C55.938 46.3743 56.042 49.4126 55.5581 51.7879C55.1236 53.9222 54.2493 55.345 53.168 55.915C50.8676 57.1277 45.9478 55.5514 40.6419 51.3934C40.0147 50.9009 39.4026 50.3926 38.8063 49.8691C40.8635 47.8204 42.9192 45.4389 44.9255 42.7938C48.4546 42.5087 51.7887 42.0423 54.8122 41.4058C54.9578 41.939 55.0896 42.4752 55.2074 43.014ZM24.8873 55.7054C22.6397 56.4281 20.8495 56.4489 19.7673 55.8807C17.4647 54.6714 16.5074 50.0026 17.8131 43.7401C17.9684 43.0001 18.1461 42.2641 18.3461 41.5331C21.3362 42.1355 24.6461 42.5687 28.1834 42.8299C30.2035 45.4181 32.3185 47.7971 34.45 49.8802C33.997 50.2794 33.5333 50.6684 33.0593 51.0467C30.2268 53.3013 27.3887 54.9009 24.8873 55.7054ZM14.3576 37.588C10.798 36.4799 7.85834 35.04 5.84342 33.4687C4.03268 32.0568 3.11875 30.6548 3.11875 29.5174C3.11875 27.0966 7.08157 24.009 13.6912 21.9105C14.4934 21.656 15.3329 21.4158 16.204 21.1904C17.1176 23.8963 18.3159 26.7255 19.7619 29.5864C18.2971 32.4897 17.0817 35.3641 16.1592 38.1019C15.5542 37.9441 14.9534 37.7727 14.3576 37.588ZM17.8873 15.7073C16.5154 9.3225 17.4265 4.5062 19.7194 3.29738C22.1615 2.00988 27.5618 3.84557 33.2538 8.44815C33.6249 8.74896 33.9901 9.05587 34.3491 9.36872C32.2281 11.4428 30.1325 13.8041 28.1304 16.377C24.6971 16.6668 21.4107 17.1321 18.3892 17.7556C18.203 17.0769 18.0357 16.394 17.8873 15.7075V15.7073ZM49.3762 22.7882C48.6626 21.6656 47.9224 20.5571 47.1563 19.4636C49.4854 19.7318 51.7171 20.0878 53.8127 20.5231C53.1836 22.3595 52.3995 24.2793 51.4764 26.2477C50.8017 25.0819 50.1015 23.9286 49.3762 22.7882ZM36.5351 11.3984C37.9734 12.8175 39.414 14.4019 40.831 16.1209C37.9566 15.9973 35.0774 15.9968 32.203 16.1194C33.6213 14.4161 35.0742 12.8339 36.5351 11.3984ZM23.6115 22.8077C22.8953 23.9389 22.2082 25.0851 21.5507 26.2454C20.6427 24.284 19.8657 22.3554 19.2312 20.4929C21.314 20.0686 23.5351 19.7217 25.8494 19.4584C25.0748 20.5586 24.3286 21.6753 23.6115 22.8075V22.8077ZM25.9159 39.7784C23.5248 39.5353 21.2704 39.2063 19.1882 38.7934C19.8326 36.8978 20.6268 34.9281 21.5544 32.9246C22.2145 34.0858 22.9045 35.2327 23.6238 36.3644C24.3635 37.5277 25.1294 38.6672 25.9159 39.7784ZM36.6212 47.8363C35.1429 46.3842 33.6687 44.7775 32.2289 43.0496C33.6268 43.0995 35.0517 43.1249 36.5 43.1249C37.9879 43.1249 39.4588 43.0945 40.9065 43.0358C39.485 44.7949 38.0498 46.4039 36.6212 47.8363ZM51.5058 32.8223C52.4816 34.8478 53.304 36.8071 53.957 38.6703C51.8405 39.1102 49.5553 39.4644 47.1474 39.7275C47.919 38.6136 48.6662 37.4859 49.3885 36.3449C50.1229 35.1852 50.8288 34.0107 51.5058 32.8223ZM46.6872 34.926C45.5814 36.6753 44.4135 38.3914 43.1852 40.0716C40.9603 40.2151 38.7305 40.2864 36.5 40.2853C34.2282 40.2853 32.0185 40.2209 29.8906 40.0952C28.6303 38.4189 27.4401 36.6998 26.3225 34.9416H26.3228C25.2104 33.1926 24.1714 31.4059 23.208 29.5851C24.169 27.764 25.2048 25.9764 26.3134 24.2261L26.3131 24.2264C27.4212 22.4757 28.6019 20.7639 29.8527 19.0948C32.0236 18.9452 34.2498 18.8673 36.4997 18.8673H36.5C38.7601 18.8673 40.9892 18.946 43.1595 19.0966C44.3977 20.7632 45.5709 22.4691 46.6769 24.211C47.7892 25.9574 48.8387 27.7363 49.8239 29.5449C48.8488 31.3719 47.8026 33.1668 46.6872 34.926ZM53.1203 3.21273C55.5647 4.49659 56.5154 9.67385 54.9795 16.4632C54.8815 16.8964 54.7714 17.3375 54.6516 17.785C51.6227 17.1482 48.334 16.6748 44.8907 16.3806C42.8849 13.7794 40.8064 11.4145 38.7199 9.36716C39.2668 8.88715 39.8266 8.41958 40.3989 7.96489C45.7884 3.69392 50.8254 2.00755 53.1203 3.21273ZM36.5 23.5811C40.1001 23.5811 43.0187 26.2389 43.0187 29.5174C43.0187 32.7958 40.1001 35.4537 36.5 35.4537C32.8999 35.4537 29.9813 32.7958 29.9813 29.5174C29.9813 26.2389 32.8999 23.5811 36.5 23.5811Z" fill="#00D8FF"/>
</svg>
